<mxfile host="Electron" modified="2023-11-08T12:02:04.032Z" agent="Mozilla/5.0 (Macintosh; Intel Mac OS X 10_15_7) AppleWebKit/537.36 (KHTML, like Gecko) draw.io/22.0.3 Chrome/114.0.5735.289 Electron/25.8.4 Safari/537.36" etag="sqHXrVLhpk-tMYE5skyc" version="22.0.3" type="device">
  <diagram name="Page-1" id="thM7yGkotu-ygW0LTPsJ">
    <mxGraphModel dx="1114" dy="999" grid="1" gridSize="10" guides="1" tooltips="1" connect="1" arrows="1" fold="1" page="1" pageScale="1" pageWidth="850" pageHeight="1100" math="0" shadow="0">
      <root>
        <mxCell id="0" />
        <mxCell id="1" parent="0" />
        <mxCell id="MppdIbLavui61SZY_ef1-1" value="WBS - Karius &amp;amp; Baktus - 2023" style="rounded=0;whiteSpace=wrap;html=1;" vertex="1" parent="1">
          <mxGeometry width="850" height="30" as="geometry" />
        </mxCell>
        <mxCell id="MppdIbLavui61SZY_ef1-10" style="edgeStyle=orthogonalEdgeStyle;rounded=0;orthogonalLoop=1;jettySize=auto;html=1;exitX=0.25;exitY=1;exitDx=0;exitDy=0;entryX=0;entryY=0.5;entryDx=0;entryDy=0;" edge="1" parent="1" source="MppdIbLavui61SZY_ef1-2" target="MppdIbLavui61SZY_ef1-9">
          <mxGeometry relative="1" as="geometry" />
        </mxCell>
        <mxCell id="MppdIbLavui61SZY_ef1-101" style="edgeStyle=orthogonalEdgeStyle;rounded=0;orthogonalLoop=1;jettySize=auto;html=1;exitX=0.25;exitY=1;exitDx=0;exitDy=0;entryX=0;entryY=0.5;entryDx=0;entryDy=0;" edge="1" parent="1" source="MppdIbLavui61SZY_ef1-2" target="MppdIbLavui61SZY_ef1-62">
          <mxGeometry relative="1" as="geometry" />
        </mxCell>
        <mxCell id="MppdIbLavui61SZY_ef1-2" value="&lt;font style=&quot;font-size: 20px;&quot;&gt;Rapport&lt;/font&gt;" style="rounded=0;whiteSpace=wrap;html=1;" vertex="1" parent="1">
          <mxGeometry x="30" y="110" width="150" height="80" as="geometry" />
        </mxCell>
        <mxCell id="MppdIbLavui61SZY_ef1-64" style="edgeStyle=orthogonalEdgeStyle;rounded=0;orthogonalLoop=1;jettySize=auto;html=1;exitX=0.25;exitY=1;exitDx=0;exitDy=0;entryX=0;entryY=0.5;entryDx=0;entryDy=0;" edge="1" parent="1" source="MppdIbLavui61SZY_ef1-9" target="MppdIbLavui61SZY_ef1-63">
          <mxGeometry relative="1" as="geometry" />
        </mxCell>
        <mxCell id="MppdIbLavui61SZY_ef1-75" style="edgeStyle=orthogonalEdgeStyle;rounded=0;orthogonalLoop=1;jettySize=auto;html=1;exitX=0.25;exitY=1;exitDx=0;exitDy=0;entryX=0;entryY=0.5;entryDx=0;entryDy=0;" edge="1" parent="1" source="MppdIbLavui61SZY_ef1-9" target="MppdIbLavui61SZY_ef1-65">
          <mxGeometry relative="1" as="geometry" />
        </mxCell>
        <mxCell id="MppdIbLavui61SZY_ef1-76" style="edgeStyle=orthogonalEdgeStyle;rounded=0;orthogonalLoop=1;jettySize=auto;html=1;exitX=0.25;exitY=1;exitDx=0;exitDy=0;entryX=0;entryY=0.5;entryDx=0;entryDy=0;" edge="1" parent="1" source="MppdIbLavui61SZY_ef1-9" target="MppdIbLavui61SZY_ef1-66">
          <mxGeometry relative="1" as="geometry" />
        </mxCell>
        <mxCell id="MppdIbLavui61SZY_ef1-77" style="edgeStyle=orthogonalEdgeStyle;rounded=0;orthogonalLoop=1;jettySize=auto;html=1;exitX=0.25;exitY=1;exitDx=0;exitDy=0;entryX=0;entryY=0.5;entryDx=0;entryDy=0;" edge="1" parent="1" source="MppdIbLavui61SZY_ef1-9" target="MppdIbLavui61SZY_ef1-67">
          <mxGeometry relative="1" as="geometry" />
        </mxCell>
        <mxCell id="MppdIbLavui61SZY_ef1-78" style="edgeStyle=orthogonalEdgeStyle;rounded=0;orthogonalLoop=1;jettySize=auto;html=1;exitX=0.25;exitY=1;exitDx=0;exitDy=0;entryX=0;entryY=0.5;entryDx=0;entryDy=0;" edge="1" parent="1" source="MppdIbLavui61SZY_ef1-9" target="MppdIbLavui61SZY_ef1-68">
          <mxGeometry relative="1" as="geometry" />
        </mxCell>
        <mxCell id="MppdIbLavui61SZY_ef1-79" style="edgeStyle=orthogonalEdgeStyle;rounded=0;orthogonalLoop=1;jettySize=auto;html=1;exitX=0.25;exitY=1;exitDx=0;exitDy=0;entryX=0;entryY=0.5;entryDx=0;entryDy=0;" edge="1" parent="1" source="MppdIbLavui61SZY_ef1-9" target="MppdIbLavui61SZY_ef1-69">
          <mxGeometry relative="1" as="geometry" />
        </mxCell>
        <mxCell id="MppdIbLavui61SZY_ef1-81" style="edgeStyle=orthogonalEdgeStyle;rounded=0;orthogonalLoop=1;jettySize=auto;html=1;exitX=0.25;exitY=1;exitDx=0;exitDy=0;entryX=0;entryY=0.5;entryDx=0;entryDy=0;" edge="1" parent="1" source="MppdIbLavui61SZY_ef1-9" target="MppdIbLavui61SZY_ef1-70">
          <mxGeometry relative="1" as="geometry" />
        </mxCell>
        <mxCell id="MppdIbLavui61SZY_ef1-91" style="edgeStyle=orthogonalEdgeStyle;rounded=0;orthogonalLoop=1;jettySize=auto;html=1;exitX=0.25;exitY=1;exitDx=0;exitDy=0;entryX=0;entryY=0.5;entryDx=0;entryDy=0;" edge="1" parent="1" source="MppdIbLavui61SZY_ef1-9" target="MppdIbLavui61SZY_ef1-73">
          <mxGeometry relative="1" as="geometry" />
        </mxCell>
        <mxCell id="MppdIbLavui61SZY_ef1-92" style="edgeStyle=orthogonalEdgeStyle;rounded=0;orthogonalLoop=1;jettySize=auto;html=1;exitX=0.25;exitY=1;exitDx=0;exitDy=0;entryX=0;entryY=0.5;entryDx=0;entryDy=0;" edge="1" parent="1" source="MppdIbLavui61SZY_ef1-9" target="MppdIbLavui61SZY_ef1-82">
          <mxGeometry relative="1" as="geometry" />
        </mxCell>
        <mxCell id="MppdIbLavui61SZY_ef1-93" style="edgeStyle=orthogonalEdgeStyle;rounded=0;orthogonalLoop=1;jettySize=auto;html=1;exitX=0.25;exitY=1;exitDx=0;exitDy=0;entryX=0;entryY=0.5;entryDx=0;entryDy=0;" edge="1" parent="1" source="MppdIbLavui61SZY_ef1-9" target="MppdIbLavui61SZY_ef1-83">
          <mxGeometry relative="1" as="geometry" />
        </mxCell>
        <mxCell id="MppdIbLavui61SZY_ef1-94" style="edgeStyle=orthogonalEdgeStyle;rounded=0;orthogonalLoop=1;jettySize=auto;html=1;exitX=0.25;exitY=1;exitDx=0;exitDy=0;entryX=0;entryY=0.5;entryDx=0;entryDy=0;" edge="1" parent="1" source="MppdIbLavui61SZY_ef1-9" target="MppdIbLavui61SZY_ef1-84">
          <mxGeometry relative="1" as="geometry" />
        </mxCell>
        <mxCell id="MppdIbLavui61SZY_ef1-95" style="edgeStyle=orthogonalEdgeStyle;rounded=0;orthogonalLoop=1;jettySize=auto;html=1;exitX=0.25;exitY=1;exitDx=0;exitDy=0;entryX=0;entryY=0.5;entryDx=0;entryDy=0;" edge="1" parent="1" source="MppdIbLavui61SZY_ef1-9" target="MppdIbLavui61SZY_ef1-85">
          <mxGeometry relative="1" as="geometry" />
        </mxCell>
        <mxCell id="MppdIbLavui61SZY_ef1-96" style="edgeStyle=orthogonalEdgeStyle;rounded=0;orthogonalLoop=1;jettySize=auto;html=1;exitX=0.25;exitY=1;exitDx=0;exitDy=0;entryX=0;entryY=0.5;entryDx=0;entryDy=0;" edge="1" parent="1" source="MppdIbLavui61SZY_ef1-9" target="MppdIbLavui61SZY_ef1-86">
          <mxGeometry relative="1" as="geometry" />
        </mxCell>
        <mxCell id="MppdIbLavui61SZY_ef1-97" style="edgeStyle=orthogonalEdgeStyle;rounded=0;orthogonalLoop=1;jettySize=auto;html=1;exitX=0.25;exitY=1;exitDx=0;exitDy=0;entryX=0;entryY=0.5;entryDx=0;entryDy=0;" edge="1" parent="1" source="MppdIbLavui61SZY_ef1-9" target="MppdIbLavui61SZY_ef1-87">
          <mxGeometry relative="1" as="geometry" />
        </mxCell>
        <mxCell id="MppdIbLavui61SZY_ef1-98" style="edgeStyle=orthogonalEdgeStyle;rounded=0;orthogonalLoop=1;jettySize=auto;html=1;exitX=0.25;exitY=1;exitDx=0;exitDy=0;entryX=0;entryY=0.5;entryDx=0;entryDy=0;" edge="1" parent="1" source="MppdIbLavui61SZY_ef1-9" target="MppdIbLavui61SZY_ef1-88">
          <mxGeometry relative="1" as="geometry" />
        </mxCell>
        <mxCell id="MppdIbLavui61SZY_ef1-99" style="edgeStyle=orthogonalEdgeStyle;rounded=0;orthogonalLoop=1;jettySize=auto;html=1;exitX=0.25;exitY=1;exitDx=0;exitDy=0;entryX=0;entryY=0.5;entryDx=0;entryDy=0;" edge="1" parent="1" source="MppdIbLavui61SZY_ef1-9" target="MppdIbLavui61SZY_ef1-89">
          <mxGeometry relative="1" as="geometry" />
        </mxCell>
        <mxCell id="MppdIbLavui61SZY_ef1-100" style="edgeStyle=orthogonalEdgeStyle;rounded=0;orthogonalLoop=1;jettySize=auto;html=1;exitX=0.25;exitY=1;exitDx=0;exitDy=0;entryX=0;entryY=0.5;entryDx=0;entryDy=0;" edge="1" parent="1" source="MppdIbLavui61SZY_ef1-9" target="MppdIbLavui61SZY_ef1-90">
          <mxGeometry relative="1" as="geometry" />
        </mxCell>
        <mxCell id="MppdIbLavui61SZY_ef1-116" style="edgeStyle=orthogonalEdgeStyle;rounded=0;orthogonalLoop=1;jettySize=auto;html=1;exitX=0.25;exitY=1;exitDx=0;exitDy=0;entryX=0;entryY=0.5;entryDx=0;entryDy=0;" edge="1" parent="1" source="MppdIbLavui61SZY_ef1-9" target="MppdIbLavui61SZY_ef1-115">
          <mxGeometry relative="1" as="geometry" />
        </mxCell>
        <mxCell id="MppdIbLavui61SZY_ef1-121" style="edgeStyle=orthogonalEdgeStyle;rounded=0;orthogonalLoop=1;jettySize=auto;html=1;exitX=0.25;exitY=1;exitDx=0;exitDy=0;entryX=0;entryY=0.5;entryDx=0;entryDy=0;" edge="1" parent="1" source="MppdIbLavui61SZY_ef1-9" target="MppdIbLavui61SZY_ef1-117">
          <mxGeometry relative="1" as="geometry" />
        </mxCell>
        <mxCell id="MppdIbLavui61SZY_ef1-122" style="edgeStyle=orthogonalEdgeStyle;rounded=0;orthogonalLoop=1;jettySize=auto;html=1;exitX=0.25;exitY=1;exitDx=0;exitDy=0;entryX=0;entryY=0.5;entryDx=0;entryDy=0;" edge="1" parent="1" source="MppdIbLavui61SZY_ef1-9" target="MppdIbLavui61SZY_ef1-118">
          <mxGeometry relative="1" as="geometry" />
        </mxCell>
        <mxCell id="MppdIbLavui61SZY_ef1-123" style="edgeStyle=orthogonalEdgeStyle;rounded=0;orthogonalLoop=1;jettySize=auto;html=1;exitX=0.25;exitY=1;exitDx=0;exitDy=0;entryX=0;entryY=0.5;entryDx=0;entryDy=0;" edge="1" parent="1" source="MppdIbLavui61SZY_ef1-9" target="MppdIbLavui61SZY_ef1-119">
          <mxGeometry relative="1" as="geometry" />
        </mxCell>
        <mxCell id="MppdIbLavui61SZY_ef1-124" style="edgeStyle=orthogonalEdgeStyle;rounded=0;orthogonalLoop=1;jettySize=auto;html=1;exitX=0.25;exitY=1;exitDx=0;exitDy=0;entryX=0;entryY=0.5;entryDx=0;entryDy=0;" edge="1" parent="1" source="MppdIbLavui61SZY_ef1-9" target="MppdIbLavui61SZY_ef1-120">
          <mxGeometry relative="1" as="geometry" />
        </mxCell>
        <mxCell id="MppdIbLavui61SZY_ef1-9" value="Sektioner" style="rounded=1;whiteSpace=wrap;html=1;" vertex="1" parent="1">
          <mxGeometry x="90" y="220" width="120" height="40" as="geometry" />
        </mxCell>
        <mxCell id="MppdIbLavui61SZY_ef1-19" style="edgeStyle=orthogonalEdgeStyle;rounded=0;orthogonalLoop=1;jettySize=auto;html=1;exitX=0.25;exitY=1;exitDx=0;exitDy=0;entryX=0;entryY=0.5;entryDx=0;entryDy=0;" edge="1" parent="1" source="MppdIbLavui61SZY_ef1-11" target="MppdIbLavui61SZY_ef1-18">
          <mxGeometry relative="1" as="geometry" />
        </mxCell>
        <mxCell id="MppdIbLavui61SZY_ef1-26" style="edgeStyle=orthogonalEdgeStyle;rounded=0;orthogonalLoop=1;jettySize=auto;html=1;exitX=0.25;exitY=1;exitDx=0;exitDy=0;entryX=0;entryY=0.5;entryDx=0;entryDy=0;" edge="1" parent="1" source="MppdIbLavui61SZY_ef1-11" target="MppdIbLavui61SZY_ef1-22">
          <mxGeometry relative="1" as="geometry" />
        </mxCell>
        <mxCell id="MppdIbLavui61SZY_ef1-27" style="edgeStyle=orthogonalEdgeStyle;rounded=0;orthogonalLoop=1;jettySize=auto;html=1;exitX=0.25;exitY=1;exitDx=0;exitDy=0;entryX=0;entryY=0.5;entryDx=0;entryDy=0;" edge="1" parent="1" source="MppdIbLavui61SZY_ef1-11" target="MppdIbLavui61SZY_ef1-23">
          <mxGeometry relative="1" as="geometry" />
        </mxCell>
        <mxCell id="MppdIbLavui61SZY_ef1-28" style="edgeStyle=orthogonalEdgeStyle;rounded=0;orthogonalLoop=1;jettySize=auto;html=1;exitX=0.25;exitY=1;exitDx=0;exitDy=0;entryX=0;entryY=0.5;entryDx=0;entryDy=0;" edge="1" parent="1" source="MppdIbLavui61SZY_ef1-11" target="MppdIbLavui61SZY_ef1-24">
          <mxGeometry relative="1" as="geometry" />
        </mxCell>
        <mxCell id="MppdIbLavui61SZY_ef1-29" style="edgeStyle=orthogonalEdgeStyle;rounded=0;orthogonalLoop=1;jettySize=auto;html=1;exitX=0.25;exitY=1;exitDx=0;exitDy=0;entryX=0;entryY=0.5;entryDx=0;entryDy=0;" edge="1" parent="1" source="MppdIbLavui61SZY_ef1-11" target="MppdIbLavui61SZY_ef1-25">
          <mxGeometry relative="1" as="geometry" />
        </mxCell>
        <mxCell id="MppdIbLavui61SZY_ef1-135" style="edgeStyle=orthogonalEdgeStyle;rounded=0;orthogonalLoop=1;jettySize=auto;html=1;exitX=0.25;exitY=1;exitDx=0;exitDy=0;entryX=0;entryY=0.5;entryDx=0;entryDy=0;" edge="1" parent="1" source="MppdIbLavui61SZY_ef1-11" target="MppdIbLavui61SZY_ef1-134">
          <mxGeometry relative="1" as="geometry" />
        </mxCell>
        <mxCell id="MppdIbLavui61SZY_ef1-11" value="&lt;font style=&quot;font-size: 20px;&quot;&gt;Enhed&lt;/font&gt;" style="rounded=0;whiteSpace=wrap;html=1;" vertex="1" parent="1">
          <mxGeometry x="290" y="110" width="150" height="80" as="geometry" />
        </mxCell>
        <mxCell id="MppdIbLavui61SZY_ef1-51" style="edgeStyle=orthogonalEdgeStyle;rounded=0;orthogonalLoop=1;jettySize=auto;html=1;exitX=0.25;exitY=1;exitDx=0;exitDy=0;entryX=0;entryY=0.5;entryDx=0;entryDy=0;" edge="1" parent="1" source="MppdIbLavui61SZY_ef1-12" target="MppdIbLavui61SZY_ef1-38">
          <mxGeometry relative="1" as="geometry" />
        </mxCell>
        <mxCell id="MppdIbLavui61SZY_ef1-53" style="edgeStyle=orthogonalEdgeStyle;rounded=0;orthogonalLoop=1;jettySize=auto;html=1;exitX=0.25;exitY=1;exitDx=0;exitDy=0;entryX=0;entryY=0.5;entryDx=0;entryDy=0;" edge="1" parent="1" source="MppdIbLavui61SZY_ef1-12" target="MppdIbLavui61SZY_ef1-52">
          <mxGeometry relative="1" as="geometry" />
        </mxCell>
        <mxCell id="MppdIbLavui61SZY_ef1-12" value="&lt;span style=&quot;font-size: 20px;&quot;&gt;Hjemmeside&lt;/span&gt;" style="rounded=0;whiteSpace=wrap;html=1;" vertex="1" parent="1">
          <mxGeometry x="550" y="110" width="150" height="80" as="geometry" />
        </mxCell>
        <mxCell id="MppdIbLavui61SZY_ef1-35" style="edgeStyle=orthogonalEdgeStyle;rounded=0;orthogonalLoop=1;jettySize=auto;html=1;exitX=0.25;exitY=1;exitDx=0;exitDy=0;entryX=0;entryY=0.5;entryDx=0;entryDy=0;" edge="1" parent="1" source="MppdIbLavui61SZY_ef1-13" target="MppdIbLavui61SZY_ef1-31">
          <mxGeometry relative="1" as="geometry" />
        </mxCell>
        <mxCell id="MppdIbLavui61SZY_ef1-60" style="edgeStyle=orthogonalEdgeStyle;rounded=0;orthogonalLoop=1;jettySize=auto;html=1;exitX=0.25;exitY=1;exitDx=0;exitDy=0;entryX=0;entryY=0.5;entryDx=0;entryDy=0;" edge="1" parent="1" source="MppdIbLavui61SZY_ef1-13" target="MppdIbLavui61SZY_ef1-32">
          <mxGeometry relative="1" as="geometry" />
        </mxCell>
        <mxCell id="MppdIbLavui61SZY_ef1-61" style="edgeStyle=orthogonalEdgeStyle;rounded=0;orthogonalLoop=1;jettySize=auto;html=1;exitX=0.25;exitY=1;exitDx=0;exitDy=0;entryX=0;entryY=0.5;entryDx=0;entryDy=0;" edge="1" parent="1" source="MppdIbLavui61SZY_ef1-13" target="MppdIbLavui61SZY_ef1-33">
          <mxGeometry relative="1" as="geometry" />
        </mxCell>
        <mxCell id="MppdIbLavui61SZY_ef1-133" style="edgeStyle=orthogonalEdgeStyle;rounded=0;orthogonalLoop=1;jettySize=auto;html=1;exitX=0.25;exitY=1;exitDx=0;exitDy=0;entryX=0;entryY=0.5;entryDx=0;entryDy=0;" edge="1" parent="1" source="MppdIbLavui61SZY_ef1-13" target="MppdIbLavui61SZY_ef1-132">
          <mxGeometry relative="1" as="geometry" />
        </mxCell>
        <mxCell id="MppdIbLavui61SZY_ef1-13" value="&lt;span style=&quot;font-size: 20px;&quot;&gt;Server/Bottle&lt;/span&gt;" style="rounded=0;whiteSpace=wrap;html=1;" vertex="1" parent="1">
          <mxGeometry x="810" y="110" width="150" height="80" as="geometry" />
        </mxCell>
        <mxCell id="MppdIbLavui61SZY_ef1-21" style="edgeStyle=orthogonalEdgeStyle;rounded=0;orthogonalLoop=1;jettySize=auto;html=1;exitX=0.25;exitY=1;exitDx=0;exitDy=0;entryX=0;entryY=0.5;entryDx=0;entryDy=0;" edge="1" parent="1" source="MppdIbLavui61SZY_ef1-18" target="MppdIbLavui61SZY_ef1-20">
          <mxGeometry relative="1" as="geometry" />
        </mxCell>
        <mxCell id="MppdIbLavui61SZY_ef1-18" value="Model" style="rounded=1;whiteSpace=wrap;html=1;" vertex="1" parent="1">
          <mxGeometry x="350" y="220" width="120" height="40" as="geometry" />
        </mxCell>
        <mxCell id="MppdIbLavui61SZY_ef1-20" value="3D Print" style="rounded=1;whiteSpace=wrap;html=1;" vertex="1" parent="1">
          <mxGeometry x="400" y="280" width="120" height="40" as="geometry" />
        </mxCell>
        <mxCell id="MppdIbLavui61SZY_ef1-22" value="Lys sensor" style="rounded=1;whiteSpace=wrap;html=1;" vertex="1" parent="1">
          <mxGeometry x="350" y="340" width="120" height="40" as="geometry" />
        </mxCell>
        <mxCell id="MppdIbLavui61SZY_ef1-23" value="Kamera" style="rounded=1;whiteSpace=wrap;html=1;" vertex="1" parent="1">
          <mxGeometry x="350" y="400" width="120" height="40" as="geometry" />
        </mxCell>
        <mxCell id="MppdIbLavui61SZY_ef1-24" value="LED Ring" style="rounded=1;whiteSpace=wrap;html=1;" vertex="1" parent="1">
          <mxGeometry x="350" y="460" width="120" height="40" as="geometry" />
        </mxCell>
        <mxCell id="MppdIbLavui61SZY_ef1-25" value="Buzzer" style="rounded=1;whiteSpace=wrap;html=1;" vertex="1" parent="1">
          <mxGeometry x="350" y="520" width="120" height="40" as="geometry" />
        </mxCell>
        <mxCell id="MppdIbLavui61SZY_ef1-31" value="Python Anywhere" style="rounded=1;whiteSpace=wrap;html=1;" vertex="1" parent="1">
          <mxGeometry x="870" y="220" width="120" height="40" as="geometry" />
        </mxCell>
        <mxCell id="MppdIbLavui61SZY_ef1-32" value="Logging" style="rounded=1;whiteSpace=wrap;html=1;" vertex="1" parent="1">
          <mxGeometry x="870" y="280" width="120" height="40" as="geometry" />
        </mxCell>
        <mxCell id="MppdIbLavui61SZY_ef1-36" style="edgeStyle=orthogonalEdgeStyle;rounded=0;orthogonalLoop=1;jettySize=auto;html=1;exitX=0.25;exitY=1;exitDx=0;exitDy=0;entryX=0;entryY=0.5;entryDx=0;entryDy=0;" edge="1" parent="1" source="MppdIbLavui61SZY_ef1-33" target="MppdIbLavui61SZY_ef1-34">
          <mxGeometry relative="1" as="geometry" />
        </mxCell>
        <mxCell id="MppdIbLavui61SZY_ef1-33" value="SQLite3" style="rounded=1;whiteSpace=wrap;html=1;" vertex="1" parent="1">
          <mxGeometry x="870" y="340" width="120" height="40" as="geometry" />
        </mxCell>
        <mxCell id="MppdIbLavui61SZY_ef1-34" value="Database" style="rounded=1;whiteSpace=wrap;html=1;" vertex="1" parent="1">
          <mxGeometry x="920" y="400" width="120" height="40" as="geometry" />
        </mxCell>
        <mxCell id="MppdIbLavui61SZY_ef1-44" style="edgeStyle=orthogonalEdgeStyle;rounded=0;orthogonalLoop=1;jettySize=auto;html=1;exitX=0.25;exitY=1;exitDx=0;exitDy=0;entryX=0;entryY=0.5;entryDx=0;entryDy=0;" edge="1" parent="1" source="MppdIbLavui61SZY_ef1-38" target="MppdIbLavui61SZY_ef1-43">
          <mxGeometry relative="1" as="geometry" />
        </mxCell>
        <mxCell id="MppdIbLavui61SZY_ef1-49" style="edgeStyle=orthogonalEdgeStyle;rounded=0;orthogonalLoop=1;jettySize=auto;html=1;exitX=0.25;exitY=1;exitDx=0;exitDy=0;entryX=0;entryY=0.5;entryDx=0;entryDy=0;" edge="1" parent="1" source="MppdIbLavui61SZY_ef1-38" target="MppdIbLavui61SZY_ef1-45">
          <mxGeometry relative="1" as="geometry" />
        </mxCell>
        <mxCell id="MppdIbLavui61SZY_ef1-50" style="edgeStyle=orthogonalEdgeStyle;rounded=0;orthogonalLoop=1;jettySize=auto;html=1;exitX=0.25;exitY=1;exitDx=0;exitDy=0;entryX=0;entryY=0.5;entryDx=0;entryDy=0;" edge="1" parent="1" source="MppdIbLavui61SZY_ef1-38" target="MppdIbLavui61SZY_ef1-46">
          <mxGeometry relative="1" as="geometry" />
        </mxCell>
        <mxCell id="MppdIbLavui61SZY_ef1-38" value="Sider" style="rounded=1;whiteSpace=wrap;html=1;" vertex="1" parent="1">
          <mxGeometry x="610" y="220" width="120" height="40" as="geometry" />
        </mxCell>
        <mxCell id="MppdIbLavui61SZY_ef1-56" style="edgeStyle=orthogonalEdgeStyle;rounded=0;orthogonalLoop=1;jettySize=auto;html=1;exitX=0.25;exitY=1;exitDx=0;exitDy=0;entryX=0;entryY=0.5;entryDx=0;entryDy=0;" edge="1" parent="1" source="MppdIbLavui61SZY_ef1-39" target="MppdIbLavui61SZY_ef1-55">
          <mxGeometry relative="1" as="geometry" />
        </mxCell>
        <mxCell id="MppdIbLavui61SZY_ef1-39" value="Login" style="rounded=1;whiteSpace=wrap;html=1;" vertex="1" parent="1">
          <mxGeometry x="660" y="580" width="120" height="40" as="geometry" />
        </mxCell>
        <mxCell id="MppdIbLavui61SZY_ef1-40" value="Certifikat" style="rounded=1;whiteSpace=wrap;html=1;" vertex="1" parent="1">
          <mxGeometry x="660" y="700" width="120" height="40" as="geometry" />
        </mxCell>
        <mxCell id="MppdIbLavui61SZY_ef1-41" value="HTTPS" style="rounded=1;whiteSpace=wrap;html=1;" vertex="1" parent="1">
          <mxGeometry x="660" y="760" width="120" height="40" as="geometry" />
        </mxCell>
        <mxCell id="MppdIbLavui61SZY_ef1-43" value="Home" style="rounded=1;whiteSpace=wrap;html=1;" vertex="1" parent="1">
          <mxGeometry x="660" y="280" width="120" height="40" as="geometry" />
        </mxCell>
        <mxCell id="MppdIbLavui61SZY_ef1-48" style="edgeStyle=orthogonalEdgeStyle;rounded=0;orthogonalLoop=1;jettySize=auto;html=1;exitX=0.25;exitY=1;exitDx=0;exitDy=0;entryX=0;entryY=0.5;entryDx=0;entryDy=0;" edge="1" parent="1" source="MppdIbLavui61SZY_ef1-45" target="MppdIbLavui61SZY_ef1-47">
          <mxGeometry relative="1" as="geometry" />
        </mxCell>
        <mxCell id="MppdIbLavui61SZY_ef1-45" value="Monitor" style="rounded=1;whiteSpace=wrap;html=1;" vertex="1" parent="1">
          <mxGeometry x="660" y="340" width="120" height="40" as="geometry" />
        </mxCell>
        <mxCell id="MppdIbLavui61SZY_ef1-46" value="Logs display" style="rounded=1;whiteSpace=wrap;html=1;" vertex="1" parent="1">
          <mxGeometry x="660" y="460" width="120" height="40" as="geometry" />
        </mxCell>
        <mxCell id="MppdIbLavui61SZY_ef1-47" value="Indstillinger" style="rounded=1;whiteSpace=wrap;html=1;" vertex="1" parent="1">
          <mxGeometry x="710" y="400" width="120" height="40" as="geometry" />
        </mxCell>
        <mxCell id="MppdIbLavui61SZY_ef1-54" style="edgeStyle=orthogonalEdgeStyle;rounded=0;orthogonalLoop=1;jettySize=auto;html=1;exitX=0.25;exitY=1;exitDx=0;exitDy=0;entryX=0;entryY=0.5;entryDx=0;entryDy=0;" edge="1" parent="1" source="MppdIbLavui61SZY_ef1-52" target="MppdIbLavui61SZY_ef1-39">
          <mxGeometry relative="1" as="geometry" />
        </mxCell>
        <mxCell id="MppdIbLavui61SZY_ef1-57" style="edgeStyle=orthogonalEdgeStyle;rounded=0;orthogonalLoop=1;jettySize=auto;html=1;exitX=0.25;exitY=1;exitDx=0;exitDy=0;entryX=0;entryY=0.5;entryDx=0;entryDy=0;" edge="1" parent="1" source="MppdIbLavui61SZY_ef1-52" target="MppdIbLavui61SZY_ef1-40">
          <mxGeometry relative="1" as="geometry" />
        </mxCell>
        <mxCell id="MppdIbLavui61SZY_ef1-58" style="edgeStyle=orthogonalEdgeStyle;rounded=0;orthogonalLoop=1;jettySize=auto;html=1;exitX=0.25;exitY=1;exitDx=0;exitDy=0;entryX=0;entryY=0.5;entryDx=0;entryDy=0;" edge="1" parent="1" source="MppdIbLavui61SZY_ef1-52" target="MppdIbLavui61SZY_ef1-41">
          <mxGeometry relative="1" as="geometry" />
        </mxCell>
        <mxCell id="MppdIbLavui61SZY_ef1-52" value="Sikkerhed" style="rounded=1;whiteSpace=wrap;html=1;" vertex="1" parent="1">
          <mxGeometry x="610" y="520" width="120" height="40" as="geometry" />
        </mxCell>
        <mxCell id="MppdIbLavui61SZY_ef1-55" value="Session" style="rounded=1;whiteSpace=wrap;html=1;" vertex="1" parent="1">
          <mxGeometry x="710" y="640" width="120" height="40" as="geometry" />
        </mxCell>
        <mxCell id="MppdIbLavui61SZY_ef1-103" style="edgeStyle=orthogonalEdgeStyle;rounded=0;orthogonalLoop=1;jettySize=auto;html=1;exitX=0.25;exitY=1;exitDx=0;exitDy=0;entryX=0;entryY=0.5;entryDx=0;entryDy=0;" edge="1" parent="1" source="MppdIbLavui61SZY_ef1-62" target="MppdIbLavui61SZY_ef1-102">
          <mxGeometry relative="1" as="geometry" />
        </mxCell>
        <mxCell id="MppdIbLavui61SZY_ef1-106" style="edgeStyle=orthogonalEdgeStyle;rounded=0;orthogonalLoop=1;jettySize=auto;html=1;exitX=0.25;exitY=1;exitDx=0;exitDy=0;entryX=0;entryY=0.5;entryDx=0;entryDy=0;" edge="1" parent="1" source="MppdIbLavui61SZY_ef1-62" target="MppdIbLavui61SZY_ef1-104">
          <mxGeometry relative="1" as="geometry" />
        </mxCell>
        <mxCell id="MppdIbLavui61SZY_ef1-107" style="edgeStyle=orthogonalEdgeStyle;rounded=0;orthogonalLoop=1;jettySize=auto;html=1;exitX=0.25;exitY=1;exitDx=0;exitDy=0;entryX=0;entryY=0.5;entryDx=0;entryDy=0;" edge="1" parent="1" source="MppdIbLavui61SZY_ef1-62" target="MppdIbLavui61SZY_ef1-105">
          <mxGeometry relative="1" as="geometry" />
        </mxCell>
        <mxCell id="MppdIbLavui61SZY_ef1-109" style="edgeStyle=orthogonalEdgeStyle;rounded=0;orthogonalLoop=1;jettySize=auto;html=1;exitX=0.25;exitY=1;exitDx=0;exitDy=0;entryX=0;entryY=0.5;entryDx=0;entryDy=0;" edge="1" parent="1" source="MppdIbLavui61SZY_ef1-62" target="MppdIbLavui61SZY_ef1-108">
          <mxGeometry relative="1" as="geometry" />
        </mxCell>
        <mxCell id="MppdIbLavui61SZY_ef1-125" style="edgeStyle=orthogonalEdgeStyle;rounded=0;orthogonalLoop=1;jettySize=auto;html=1;exitX=0.25;exitY=1;exitDx=0;exitDy=0;entryX=0;entryY=0.5;entryDx=0;entryDy=0;" edge="1" parent="1" source="MppdIbLavui61SZY_ef1-62" target="MppdIbLavui61SZY_ef1-110">
          <mxGeometry relative="1" as="geometry" />
        </mxCell>
        <mxCell id="MppdIbLavui61SZY_ef1-62" value="Andet" style="rounded=1;whiteSpace=wrap;html=1;" vertex="1" parent="1">
          <mxGeometry x="100" y="2010" width="120" height="40" as="geometry" />
        </mxCell>
        <mxCell id="MppdIbLavui61SZY_ef1-63" value="0. Forside" style="rounded=1;whiteSpace=wrap;html=1;" vertex="1" parent="1">
          <mxGeometry x="140" y="280" width="120" height="40" as="geometry" />
        </mxCell>
        <mxCell id="MppdIbLavui61SZY_ef1-65" value="1. Resume" style="rounded=1;whiteSpace=wrap;html=1;" vertex="1" parent="1">
          <mxGeometry x="140" y="340" width="120" height="40" as="geometry" />
        </mxCell>
        <mxCell id="MppdIbLavui61SZY_ef1-66" value="2. Indholsfortegnelse" style="rounded=1;whiteSpace=wrap;html=1;" vertex="1" parent="1">
          <mxGeometry x="140" y="400" width="120" height="40" as="geometry" />
        </mxCell>
        <mxCell id="MppdIbLavui61SZY_ef1-67" value="3. Indledning" style="rounded=1;whiteSpace=wrap;html=1;" vertex="1" parent="1">
          <mxGeometry x="140" y="460" width="120" height="40" as="geometry" />
        </mxCell>
        <mxCell id="MppdIbLavui61SZY_ef1-68" value="4. Problemformulering" style="rounded=1;whiteSpace=wrap;html=1;" vertex="1" parent="1">
          <mxGeometry x="140" y="520" width="120" height="40" as="geometry" />
        </mxCell>
        <mxCell id="MppdIbLavui61SZY_ef1-80" style="edgeStyle=orthogonalEdgeStyle;rounded=0;orthogonalLoop=1;jettySize=auto;html=1;exitX=0.25;exitY=1;exitDx=0;exitDy=0;entryX=0;entryY=0.5;entryDx=0;entryDy=0;" edge="1" parent="1" source="MppdIbLavui61SZY_ef1-69" target="MppdIbLavui61SZY_ef1-74">
          <mxGeometry relative="1" as="geometry" />
        </mxCell>
        <mxCell id="MppdIbLavui61SZY_ef1-114" style="edgeStyle=orthogonalEdgeStyle;rounded=0;orthogonalLoop=1;jettySize=auto;html=1;exitX=0.25;exitY=1;exitDx=0;exitDy=0;entryX=0;entryY=0.5;entryDx=0;entryDy=0;" edge="1" parent="1" source="MppdIbLavui61SZY_ef1-69" target="MppdIbLavui61SZY_ef1-113">
          <mxGeometry relative="1" as="geometry" />
        </mxCell>
        <mxCell id="MppdIbLavui61SZY_ef1-128" style="edgeStyle=orthogonalEdgeStyle;rounded=0;orthogonalLoop=1;jettySize=auto;html=1;exitX=0.25;exitY=1;exitDx=0;exitDy=0;entryX=0;entryY=0.5;entryDx=0;entryDy=0;" edge="1" parent="1" source="MppdIbLavui61SZY_ef1-69" target="MppdIbLavui61SZY_ef1-126">
          <mxGeometry relative="1" as="geometry" />
        </mxCell>
        <mxCell id="MppdIbLavui61SZY_ef1-129" style="edgeStyle=orthogonalEdgeStyle;rounded=0;orthogonalLoop=1;jettySize=auto;html=1;exitX=0.25;exitY=1;exitDx=0;exitDy=0;entryX=0;entryY=0.5;entryDx=0;entryDy=0;" edge="1" parent="1" source="MppdIbLavui61SZY_ef1-69" target="MppdIbLavui61SZY_ef1-127">
          <mxGeometry relative="1" as="geometry" />
        </mxCell>
        <mxCell id="MppdIbLavui61SZY_ef1-69" value="5. Indl. undersøgelser" style="rounded=1;whiteSpace=wrap;html=1;" vertex="1" parent="1">
          <mxGeometry x="140" y="580" width="120" height="40" as="geometry" />
        </mxCell>
        <mxCell id="MppdIbLavui61SZY_ef1-72" style="edgeStyle=orthogonalEdgeStyle;rounded=0;orthogonalLoop=1;jettySize=auto;html=1;exitX=0.25;exitY=1;exitDx=0;exitDy=0;entryX=0;entryY=0.5;entryDx=0;entryDy=0;" edge="1" parent="1" source="MppdIbLavui61SZY_ef1-70" target="MppdIbLavui61SZY_ef1-71">
          <mxGeometry relative="1" as="geometry" />
        </mxCell>
        <mxCell id="MppdIbLavui61SZY_ef1-70" value="6. Kravspecifikation" style="rounded=1;whiteSpace=wrap;html=1;" vertex="1" parent="1">
          <mxGeometry x="140" y="900" width="120" height="40" as="geometry" />
        </mxCell>
        <mxCell id="MppdIbLavui61SZY_ef1-71" value="6.1. Accepttest metode" style="rounded=1;whiteSpace=wrap;html=1;" vertex="1" parent="1">
          <mxGeometry x="190" y="960" width="120" height="40" as="geometry" />
        </mxCell>
        <mxCell id="MppdIbLavui61SZY_ef1-73" value="7." style="rounded=1;whiteSpace=wrap;html=1;" vertex="1" parent="1">
          <mxGeometry x="140" y="1020" width="120" height="40" as="geometry" />
        </mxCell>
        <mxCell id="MppdIbLavui61SZY_ef1-74" value="5.1 Idéudvikling" style="rounded=1;whiteSpace=wrap;html=1;" vertex="1" parent="1">
          <mxGeometry x="190" y="640" width="120" height="40" as="geometry" />
        </mxCell>
        <mxCell id="MppdIbLavui61SZY_ef1-82" value="8. Løsningsdesign" style="rounded=1;whiteSpace=wrap;html=1;" vertex="1" parent="1">
          <mxGeometry x="140" y="1080" width="120" height="40" as="geometry" />
        </mxCell>
        <mxCell id="MppdIbLavui61SZY_ef1-83" value="9. Test af løsning" style="rounded=1;whiteSpace=wrap;html=1;" vertex="1" parent="1">
          <mxGeometry x="140" y="1140" width="120" height="40" as="geometry" />
        </mxCell>
        <mxCell id="MppdIbLavui61SZY_ef1-84" value="10. Implementering af løsning" style="rounded=1;whiteSpace=wrap;html=1;" vertex="1" parent="1">
          <mxGeometry x="140" y="1200" width="120" height="40" as="geometry" />
        </mxCell>
        <mxCell id="MppdIbLavui61SZY_ef1-85" value="11. Praktisk projektplanlægning og ledelse" style="rounded=1;whiteSpace=wrap;html=1;" vertex="1" parent="1">
          <mxGeometry x="140" y="1260" width="120" height="40" as="geometry" />
        </mxCell>
        <mxCell id="MppdIbLavui61SZY_ef1-86" value="12. Konklusion" style="rounded=1;whiteSpace=wrap;html=1;" vertex="1" parent="1">
          <mxGeometry x="140" y="1710" width="120" height="40" as="geometry" />
        </mxCell>
        <mxCell id="MppdIbLavui61SZY_ef1-87" value="13. Projektforløbet" style="rounded=1;whiteSpace=wrap;html=1;" vertex="1" parent="1">
          <mxGeometry x="140" y="1770" width="120" height="40" as="geometry" />
        </mxCell>
        <mxCell id="MppdIbLavui61SZY_ef1-88" value="14. Perspektivering" style="rounded=1;whiteSpace=wrap;html=1;" vertex="1" parent="1">
          <mxGeometry x="140" y="1830" width="120" height="40" as="geometry" />
        </mxCell>
        <mxCell id="MppdIbLavui61SZY_ef1-89" value="15. Litteraturliste" style="rounded=1;whiteSpace=wrap;html=1;" vertex="1" parent="1">
          <mxGeometry x="140" y="1890" width="120" height="40" as="geometry" />
        </mxCell>
        <mxCell id="MppdIbLavui61SZY_ef1-90" value="16. Bilag" style="rounded=1;whiteSpace=wrap;html=1;" vertex="1" parent="1">
          <mxGeometry x="140" y="1950" width="120" height="40" as="geometry" />
        </mxCell>
        <mxCell id="MppdIbLavui61SZY_ef1-131" style="edgeStyle=orthogonalEdgeStyle;rounded=0;orthogonalLoop=1;jettySize=auto;html=1;exitX=0.25;exitY=1;exitDx=0;exitDy=0;entryX=0;entryY=0.5;entryDx=0;entryDy=0;" edge="1" parent="1" source="MppdIbLavui61SZY_ef1-102" target="MppdIbLavui61SZY_ef1-130">
          <mxGeometry relative="1" as="geometry" />
        </mxCell>
        <mxCell id="MppdIbLavui61SZY_ef1-102" value="Interview" style="rounded=1;whiteSpace=wrap;html=1;" vertex="1" parent="1">
          <mxGeometry x="150" y="2070" width="120" height="40" as="geometry" />
        </mxCell>
        <mxCell id="MppdIbLavui61SZY_ef1-104" value="WBS" style="rounded=1;whiteSpace=wrap;html=1;" vertex="1" parent="1">
          <mxGeometry x="150" y="2190" width="120" height="40" as="geometry" />
        </mxCell>
        <mxCell id="MppdIbLavui61SZY_ef1-105" value="Github" style="rounded=1;whiteSpace=wrap;html=1;" vertex="1" parent="1">
          <mxGeometry x="150" y="2250" width="120" height="40" as="geometry" />
        </mxCell>
        <mxCell id="MppdIbLavui61SZY_ef1-108" value="Gantt" style="rounded=1;whiteSpace=wrap;html=1;" vertex="1" parent="1">
          <mxGeometry x="150" y="2310" width="120" height="40" as="geometry" />
        </mxCell>
        <mxCell id="MppdIbLavui61SZY_ef1-110" value="BUM-Liste" style="rounded=1;whiteSpace=wrap;html=1;" vertex="1" parent="1">
          <mxGeometry x="150" y="2370" width="120" height="40" as="geometry" />
        </mxCell>
        <mxCell id="MppdIbLavui61SZY_ef1-113" value="5.4 Persona/Userstories" style="rounded=1;whiteSpace=wrap;html=1;" vertex="1" parent="1">
          <mxGeometry x="190" y="820" width="120" height="40" as="geometry" />
        </mxCell>
        <mxCell id="MppdIbLavui61SZY_ef1-115" value="11.1" style="rounded=1;whiteSpace=wrap;html=1;" vertex="1" parent="1">
          <mxGeometry x="140" y="1320" width="120" height="40" as="geometry" />
        </mxCell>
        <mxCell id="MppdIbLavui61SZY_ef1-117" value="11.2" style="rounded=1;whiteSpace=wrap;html=1;" vertex="1" parent="1">
          <mxGeometry x="140" y="1380" width="120" height="40" as="geometry" />
        </mxCell>
        <mxCell id="MppdIbLavui61SZY_ef1-118" value="11.3" style="rounded=1;whiteSpace=wrap;html=1;" vertex="1" parent="1">
          <mxGeometry x="140" y="1440" width="120" height="40" as="geometry" />
        </mxCell>
        <mxCell id="MppdIbLavui61SZY_ef1-119" value="11.4" style="rounded=1;whiteSpace=wrap;html=1;" vertex="1" parent="1">
          <mxGeometry x="140" y="1500" width="120" height="40" as="geometry" />
        </mxCell>
        <mxCell id="MppdIbLavui61SZY_ef1-120" value="11.5 Virksomhedsanalyse" style="rounded=1;whiteSpace=wrap;html=1;" vertex="1" parent="1">
          <mxGeometry x="140" y="1560" width="120" height="40" as="geometry" />
        </mxCell>
        <mxCell id="MppdIbLavui61SZY_ef1-126" value="5.2 Research" style="rounded=1;whiteSpace=wrap;html=1;" vertex="1" parent="1">
          <mxGeometry x="190" y="700" width="120" height="40" as="geometry" />
        </mxCell>
        <mxCell id="MppdIbLavui61SZY_ef1-127" value="5.3" style="rounded=1;whiteSpace=wrap;html=1;" vertex="1" parent="1">
          <mxGeometry x="190" y="760" width="120" height="40" as="geometry" />
        </mxCell>
        <mxCell id="MppdIbLavui61SZY_ef1-130" value="Interview spørgsmål" style="rounded=1;whiteSpace=wrap;html=1;" vertex="1" parent="1">
          <mxGeometry x="200" y="2130" width="120" height="40" as="geometry" />
        </mxCell>
        <mxCell id="MppdIbLavui61SZY_ef1-132" value="Netværk" style="rounded=1;whiteSpace=wrap;html=1;" vertex="1" parent="1">
          <mxGeometry x="870" y="460" width="120" height="40" as="geometry" />
        </mxCell>
        <mxCell id="MppdIbLavui61SZY_ef1-134" value="Netværk" style="rounded=1;whiteSpace=wrap;html=1;" vertex="1" parent="1">
          <mxGeometry x="350" y="580" width="120" height="40" as="geometry" />
        </mxCell>
      </root>
    </mxGraphModel>
  </diagram>
</mxfile>
